<svg width="48" height="48" viewBox="0 0 48 48" fill="none" xmlns="http://www.w3.org/2000/svg">
<rect width="48" height="48" rx="24" fill="#FE6E63"/>
<path d="M16.0227 36V12.7273H25.2045C26.9697 12.7273 28.4735 13.0644 29.7159 13.7386C30.9583 14.4053 31.9053 15.3333 32.5568 16.5227C33.2159 17.7045 33.5455 19.0682 33.5455 20.6136C33.5455 22.1591 33.2121 23.5227 32.5455 24.7045C31.8788 25.8864 30.9129 26.8068 29.6477 27.4659C28.3902 28.125 26.8674 28.4545 25.0795 28.4545H19.2273V24.5114H24.2841C25.2311 24.5114 26.0114 24.3485 26.625 24.0227C27.2462 23.6894 27.7083 23.2311 28.0114 22.6477C28.322 22.0568 28.4773 21.3788 28.4773 20.6136C28.4773 19.8409 28.322 19.1667 28.0114 18.5909C27.7083 18.0076 27.2462 17.5568 26.625 17.2386C26.0038 16.9129 25.2159 16.75 24.2614 16.75H20.9432V36H16.0227Z" fill="white"/>
</svg>
